<svg xmlns="http://www.w3.org/2000/svg" width="20" height="20" viewBox="0 0 20 20">
  <g id="Icon_ionic-ios-timer" data-name="Icon ionic-ios-timer" transform="translate(-3.938 -3.938)">
    <path id="Path_4" data-name="Path 4" d="M13.94,23.938A10,10,0,0,1,7,6.738.8.8,0,1,1,8.114,7.892a8.395,8.395,0,1,0,6.627-2.31v3.13a.805.805,0,0,1-1.61,0V4.743a.8.8,0,0,1,.805-.805,10,10,0,1,1,.005,20Z" fill="#148421"/>
    <path id="Path_5" data-name="Path 5" d="M12.368,11.384l7,5.027A2.117,2.117,0,0,1,16.9,19.856a2.044,2.044,0,0,1-.492-.492l-5.027-7a.705.705,0,0,1,.984-.984Z" transform="translate(-3.106 -3.107)" fill="#148421"/>
  </g>
</svg>
