<?xml version="1.0" encoding="utf-8"?>
<!-- Generator: Adobe Illustrator 27.1.1, SVG Export Plug-In . SVG Version: 6.00 Build 0)  -->
<svg version="1.1" id="katman_1" xmlns="http://www.w3.org/2000/svg" xmlns:xlink="http://www.w3.org/1999/xlink" x="0px" y="0px"
	 viewBox="0 0 20 20" style="enable-background:new 0 0 20 20;" xml:space="preserve">
<style type="text/css">
	.st0{fill:#B84392;}
	.st1{fill:none;}
	.st2{fill:#E33C8E;}
	.st3{font-family:'ArialMT';}
	.st4{font-size:7px;}
</style>
<g id="Icon_ionic-ios-timer" transform="translate(-3.938 -3.938)">
	<path id="Path_4" class="st0" d="M13.9,23.9c-5.5,0-10-4.5-10-10C3.9,11.2,5,8.6,7,6.7c0.3-0.3,0.8-0.3,1.1,0s0.3,0.8,0,1.1l0,0
		C4.8,11,4.7,16.3,7.9,19.7s8.5,3.4,11.9,0.2S23.2,11.4,20,8c-1.4-1.4-3.2-2.3-5.2-2.5v3.1c0,0.4-0.4,0.8-0.8,0.8
		c-0.4,0-0.8-0.4-0.8-0.8v-4c0-0.4,0.4-0.8,0.8-0.8l0,0c5.5,0,10,4.5,10,10C23.9,19.5,19.5,23.9,13.9,23.9L13.9,23.9z"/>
</g>
<rect x="0.8" y="6.4" class="st1" width="18.4" height="11.8"/>
<text transform="matrix(1 0 0 1 1.6147 12.8082)" class="st2 st3 st4">Cmin</text>
</svg>
